<?xml version="1.0" standalone="no"?>
<!DOCTYPE svg PUBLIC "-//W3C//DTD SVG 20010904//EN"
 "http://www.w3.org/TR/2001/REC-SVG-20010904/DTD/svg10.dtd">
<svg version="1.0" xmlns="http://www.w3.org/2000/svg"
 width="512.000000pt" height="512.000000pt" viewBox="0 0 512.000000 512.000000"
 preserveAspectRatio="xMidYMid meet">

<g transform="translate(0.000000,512.000000) scale(0.100000,-0.100000)"
fill="#000000" stroke="none">
<path d="M2550 4125 c-1345 -547 -2462 -1002 -2483 -1012 -58 -25 -81 -82 -56
-136 12 -27 36 -42 554 -342 l360 -208 370 -800 c204 -441 380 -813 393 -829
30 -36 81 -46 119 -23 15 9 161 187 323 396 162 208 299 378 304 379 5 0 216
-120 468 -266 253 -146 472 -270 488 -276 42 -14 96 6 115 42 35 68 1615 3951
1615 3969 0 53 -49 102 -102 101 -13 -1 -1123 -448 -2468 -995z m1507 -1203
c-396 -971 -687 -1671 -693 -1670 -7 2 -300 170 -653 373 l-640 370 87 87
c219 218 2576 2517 2578 2515 2 -2 -304 -755 -679 -1675z m-68 1564 c-15 -14
-2963 -1876 -2970 -1876 -5 0 -163 89 -351 197 -269 156 -337 199 -322 205 78
34 3631 1477 3638 1477 5 1 7 -1 5 -3z m206 -135 c-33 -32 -577 -564 -1210
-1181 -632 -618 -1156 -1134 -1163 -1148 -8 -13 -36 -193 -63 -400 -27 -208
-50 -383 -51 -391 -2 -8 -130 262 -286 598 -156 337 -282 614 -280 616 9 9
3103 1965 3108 1965 2 0 -22 -26 -55 -59z m-2020 -2646 c39 -23 70 -46 70 -52
0 -12 -327 -434 -332 -429 -3 3 63 511 73 559 l6 27 56 -32 c32 -18 89 -51
127 -73z"/>
<path d="M645 2145 c-38 -20 -301 -281 -321 -317 -48 -92 42 -182 134 -134 29
16 289 275 316 316 24 36 20 75 -11 110 -34 37 -78 46 -118 25z"/>
<path d="M85 1581 c-62 -26 -81 -110 -34 -156 14 -14 41 -28 61 -31 30 -5 41
-1 69 24 28 25 34 37 34 72 0 35 -6 47 -33 71 -33 29 -60 35 -97 20z"/>
<path d="M713 858 c-216 -216 -400 -407 -409 -426 -39 -84 44 -167 128 -128
19 9 210 193 426 409 l392 393 0 46 c0 36 -6 51 -26 72 -21 20 -36 26 -72 26
l-46 0 -393 -392z"/>
<path d="M2494 965 c-17 -9 -146 -132 -287 -274 l-257 -258 0 -43 c0 -63 37
-100 99 -100 l44 0 245 243 c134 133 257 260 273 281 37 49 37 87 2 126 -34
37 -77 46 -119 25z"/>
<path d="M74 200 c-30 -12 -64 -58 -64 -87 0 -56 48 -103 105 -103 30 0 81 43
89 75 10 40 -18 94 -58 110 -40 17 -43 17 -72 5z"/>
<path d="M1725 191 c-62 -26 -81 -110 -34 -156 14 -14 42 -28 62 -32 32 -5 41
-1 72 30 47 47 48 86 1 133 -34 34 -61 41 -101 25z"/>
</g>
</svg>
