<?xml version="1.0" encoding="UTF-8"?>
<svg version="1.1" xmlns="http://www.w3.org/2000/svg" width="60" height="60">
<path d="M0 0 C2.84846134 2.21546993 4.56462311 3.99319095 6 7.3125 C6 10.69947619 4.88802665 13.02618616 3.3984375 16.03515625 C3.26695313 16.68355469 3.13546875 17.33195312 3 18 C3.97107753 19.3545428 4.97454857 20.68614036 6 22 C6.99787537 26.6567517 7.02917204 31.119422 4.7109375 35.35546875 C-0.00301297 41.0918514 -5.43716791 44.20143419 -12.625 45.8125 C-17.17711864 47.41417137 -19.21323749 50.18223745 -22 54 C-24.84223197 52.63760782 -26.96027641 51.44766831 -29 49 C-29 48.34 -29 47.68 -29 47 C-29.6290625 46.90203125 -30.258125 46.8040625 -30.90625 46.703125 C-39.9014205 45.13167955 -46.77980271 42.58267203 -52.7109375 35.3515625 C-55.07170787 31.04494503 -54.85494215 26.7396793 -54 22 C-53.05273046 20.30280873 -52.05771739 18.63064764 -51 17 C-50.95000327 15.06871072 -50.95000327 15.06871072 -51.125 13 C-51.25698615 9.51556564 -51.05362689 9.07570855 -48.875 6 C-45.49736169 3.65033857 -44.02695637 3.31456062 -40 4 C-37.625 5.375 -37.625 5.375 -36 7 C-36 7.66 -36 8.32 -36 9 C-35.319375 8.83757813 -34.63875 8.67515625 -33.9375 8.5078125 C-30.57723003 7.92691477 -27.40949785 7.86765194 -24 7.875 C-22.205625 7.87113281 -22.205625 7.87113281 -20.375 7.8671875 C-17.44672307 7.98242062 -14.84213024 8.32176437 -12 9 C-11.566875 7.88625 -11.13375 6.7725 -10.6875 5.625 C-8.20699384 0.29650529 -5.6913039 -0.79678255 0 0 Z M-6 6 C-6 7.65 -6 9.3 -6 11 C-5.67 11 -5.34 11 -5 11 C-5 9.35 -5 7.7 -5 6 C-5.33 6 -5.66 6 -6 6 Z M-1 6 C0 8 0 8 0 8 Z M-1 9 C0 11 0 11 0 11 Z M-46 10 C-46 11.65 -46 13.3 -46 15 C-45.67 15 -45.34 15 -45 15 C-45 13.35 -45 11.7 -45 10 C-45.33 10 -45.66 10 -46 10 Z M-41 10 C-40 12 -40 12 -40 12 Z M-35 12 C-35.226875 13.19625 -35.45375 14.3925 -35.6875 15.625 C-36.7948776 20.16767308 -38.80831111 22.64032749 -42 26 C-44.88437779 24.70700306 -46.87219421 23.34058637 -49 21 C-51.47241481 24.70862222 -51.77509233 27.70027726 -51 32 C-47.75484199 37.27338176 -43.76242254 39.85453664 -38 42 C-34.68416549 42.7783777 -34.68416549 42.7783777 -32 43 C-32.04640625 42.32453125 -32.0928125 41.6490625 -32.140625 40.953125 C-32.43819609 33.59886799 -32.43819609 33.59886799 -30.125 30.4375 C-26.52449228 28.00186242 -24.37211289 27.65708918 -20 28 C-15.36764706 30.26470588 -15.36764706 30.26470588 -14 33 C-13.77532169 34.53668865 -13.59203195 36.07968054 -13.4375 37.625 C-13.35371094 38.44226563 -13.26992188 39.25953125 -13.18359375 40.1015625 C-13.12300781 40.72804688 -13.06242187 41.35453125 -13 42 C-7.04414499 41.70220725 -3.28773255 38.88213623 1 35 C3.06520632 31.90219052 3.29477024 31.0459519 3.3125 27.5 C3.32925781 26.7265625 3.34601562 25.953125 3.36328125 25.15625 C2.92078843 22.52984103 2.02185443 21.66442897 0 20 C-1.98 20.99 -1.98 20.99 -4 22 C-4.556875 21.278125 -5.11375 20.55625 -5.6875 19.8125 C-10.69921096 13.49974 -10.69921096 13.49974 -18 11 C-19.99839247 10.90964715 -21.99957253 10.86989687 -24 10.875 C-25.5159375 10.87113281 -25.5159375 10.87113281 -27.0625 10.8671875 C-29.81714744 10.99173273 -32.31838803 11.37889135 -35 12 Z M-41 13 C-40 15 -40 15 -40 15 Z M-25 33 C-21 34 -21 34 -21 34 Z M-27 35 C-27 36.65 -27 38.3 -27 40 C-26.67 40 -26.34 40 -26 40 C-26 38.35 -26 36.7 -26 35 C-26.33 35 -26.66 35 -27 35 Z M-20 35 C-19 37 -19 37 -19 37 Z M-20 38 C-19 40 -19 40 -19 40 Z M-25 41 C-21 42 -21 42 -21 42 Z " fill="#FFFFFF" transform="translate(54,3)"/>
</svg>
