<?xml version="1.0" encoding="utf-8"?>
<!-- Generator: Adobe Illustrator 23.0.0, SVG Export Plug-In . SVG Version: 6.00 Build 0)  -->
<svg version="1.1" id="Calque_1" xmlns="http://www.w3.org/2000/svg" xmlns:xlink="http://www.w3.org/1999/xlink" x="0px" y="0px"
	 viewBox="0 0 256 256" style="enable-background:new 0 0 256 256;" xml:space="preserve">
<style type="text/css">
	.st0{fill:#FFFFFF;}
</style>
<path class="st0" d="M81.1,108.3c-6.9,16.7-3.4,36.6,7.9,50.7c10.8,13.3,28.1,20.7,45.8,18c9.5-1.5,18.3-5.2,26.4-11.2
	c4.5-3.3,7.7-7.5,9.5-12.4c0.1-0.2,0.2-0.3,0.4-0.1l67.7,38.9c0.1,0.1,0.1,0.1,0.1,0.2c0,0.1,0,0.2-0.1,0.2l-110.6,63.4
	c-0.2,0.1-0.5,0.1-0.7,0L17.3,192.6c-0.1-0.1-0.2-0.2-0.2-0.4V63.9c0-0.2,0.1-0.4,0.3-0.5L127.6,0.1c0.2-0.1,0.3-0.1,0.5,0
	l110.7,63.4c0.1,0,0.1,0.1,0.1,0.2c0,0.1,0,0.2-0.1,0.2c-22.1,13.3-44.4,26.3-66.9,38.9c-0.2,0.1-0.3,0.1-0.4-0.1
	c-9.8-14.1-23.2-22.2-40.4-24.5c-1.7-0.2-3.2-0.3-4.9-0.1C107.1,80.3,88.8,89.8,81.1,108.3z"/>
<path class="st0" d="M100.8,140.7c-8-18.4,2.9-38.1,22.7-41.5c15.3-2.6,29.2,7,32.9,21.8c0.5,2.1,0.8,4.7,0.8,8c0,8.1,0,16.3,0,24.4
	c0,1.3-0.4,2.3-1.3,3.1c-0.2,0.1-0.3,0.2-0.5,0.2c-3.8,0.3-9.1,1.1-9.1-3.9c0-8.6,0-17.1,0-25.7c0-15.9-21.7-23.2-31.9-11.7
	c-4,4.5-5.4,9.7-4.4,15.7c1.5,9,6.7,14.2,15.7,15.4c2.7,0.4,5.5,0.1,8.2-0.8c1.4-0.5,2.4-0.7,3-0.7c2.8,0.1,4,3.1,4.7,5.7
	c1.2,4.8-5.8,6.5-9.4,6.8C119.2,158.7,106.1,152.9,100.8,140.7z"/>
</svg>
