<?xml version="1.0" encoding="UTF-8"?>
<svg version="1.1" xmlns="http://www.w3.org/2000/svg" width="60" height="60">
<path d="M0 0 C2.43739597 1.07214756 3.83188335 2.36049028 5.68994141 4.26660156 C6.68574219 5.2769043 6.68574219 5.2769043 7.70166016 6.30761719 C8.38357422 7.01466797 9.06548828 7.72171875 9.76806641 8.45019531 C10.46544922 9.16111328 11.16283203 9.87203125 11.88134766 10.60449219 C13.60053221 12.35900245 15.31232512 14.12012884 17.01806641 15.88769531 C15.86633285 18.35569578 14.97023075 19.93553097 13.01806641 21.88769531 C9.19644624 21.63292063 7.56638243 19.54263544 5.01806641 16.88769531 C4.92009766 17.9846875 4.82212891 19.08167969 4.72119141 20.21191406 C4.5710474 21.66643409 4.41995558 23.12085649 4.26806641 24.57519531 C4.17525391 25.65704102 4.17525391 25.65704102 4.08056641 26.76074219 C3.55384313 31.56709207 2.61524766 34.40049982 -0.98193359 37.88769531 C-4.00879444 39.7312337 -6.22466185 40.12817316 -9.74755859 40.08300781 C-10.63701172 40.0765625 -11.52646484 40.07011719 -12.44287109 40.06347656 C-13.36326172 40.04671875 -14.28365234 40.02996094 -15.23193359 40.01269531 C-16.16779297 40.00367188 -17.10365234 39.99464844 -18.06787109 39.98535156 C-20.37282016 39.96183167 -22.67724519 39.92896384 -24.98193359 39.88769531 C-24.98193359 37.24769531 -24.98193359 34.60769531 -24.98193359 31.88769531 C-19.04193359 31.55769531 -13.10193359 31.22769531 -6.98193359 30.88769531 C-4.98803358 26.89989529 -4.75506397 25.41621959 -4.85693359 21.13769531 C-4.88400391 19.66042969 -4.88400391 19.66042969 -4.91162109 18.15332031 C-4.93482422 17.40566406 -4.95802734 16.65800781 -4.98193359 15.88769531 C-5.36865234 16.33242188 -5.75537109 16.77714844 -6.15380859 17.23535156 C-6.67458984 17.80125 -7.19537109 18.36714844 -7.73193359 18.95019531 C-8.24240234 19.51867187 -8.75287109 20.08714844 -9.27880859 20.67285156 C-10.98193359 21.88769531 -10.98193359 21.88769531 -13.07568359 21.66894531 C-15.2648636 20.77174039 -16.44040228 19.66045632 -17.98193359 17.88769531 C-15.8850179 13.24688644 -12.65364853 10.15441579 -9.10693359 6.57519531 C-8.48173828 5.91712891 -7.85654297 5.2590625 -7.21240234 4.58105469 C-6.2978125 3.65583008 -6.2978125 3.65583008 -5.36474609 2.71191406 C-4.81189941 2.14561279 -4.25905273 1.57931152 -3.68945312 0.99584961 C-1.98193359 -0.11230469 -1.98193359 -0.11230469 0 0 Z M-0.98193359 2.88769531 C-0.65193359 3.87769531 -0.32193359 4.86769531 0.01806641 5.88769531 C-0.64193359 5.88769531 -1.30193359 5.88769531 -1.98193359 5.88769531 C-2.31193359 6.54769531 -2.64193359 7.20769531 -2.98193359 7.88769531 C-3.62130859 7.99082031 -4.26068359 8.09394531 -4.91943359 8.20019531 C-5.94037109 8.54050781 -5.94037109 8.54050781 -6.98193359 8.88769531 C-7.6632581 10.54842381 -8.32935486 12.21546231 -8.98193359 13.88769531 C-11.10693359 15.20019531 -11.10693359 15.20019531 -12.98193359 15.88769531 C-12.98193359 16.87769531 -12.98193359 17.86769531 -12.98193359 18.88769531 C-9.98973091 17.52399232 -7.69166831 15.93861448 -5.23193359 13.76269531 C-4.14860026 12.80436198 -3.06526693 11.84602865 -1.98193359 10.88769531 C-2.1229805 13.80466542 -2.26958173 16.72117551 -2.41943359 19.63769531 C-2.45875 20.46269531 -2.49806641 21.28769531 -2.53857422 22.13769531 C-2.58046875 22.93691406 -2.62236328 23.73613281 -2.66552734 24.55957031 C-2.70218506 25.29272461 -2.73884277 26.02587891 -2.77661133 26.78125 C-2.98193359 28.88769531 -2.98193359 28.88769531 -3.98193359 32.88769531 C-13.38693359 33.38269531 -13.38693359 33.38269531 -22.98193359 33.88769531 C-22.98193359 35.20769531 -22.98193359 36.52769531 -22.98193359 37.88769531 C-20.27189932 38.02349881 -17.56874418 38.12214155 -14.85693359 38.20019531 C-13.71611328 38.26303711 -13.71611328 38.26303711 -12.55224609 38.32714844 C-8.55697618 38.41325339 -5.79731564 38.20803604 -2.55224609 35.74316406 C2.23558337 30.42416203 2.302907 25.31206816 2.14306641 18.51269531 C2.13404297 17.77664062 2.12501953 17.04058594 2.11572266 16.28222656 C2.09236785 14.48390651 2.05650476 12.6857562 2.01806641 10.88769531 C2.81470703 11.64566406 2.81470703 11.64566406 3.62744141 12.41894531 C4.68705078 13.39347656 4.68705078 13.39347656 5.76806641 14.38769531 C6.46416016 15.03738281 7.16025391 15.68707031 7.87744141 16.35644531 C10.12163453 18.27556174 10.12163453 18.27556174 14.01806641 17.88769531 C12.40573841 13.85687532 9.55572045 11.12825394 6.51806641 8.13769531 C6.01919922 7.63109375 5.52033203 7.12449219 5.00634766 6.60253906 C2.48745003 3.75963932 2.48745003 3.75963932 -0.98193359 2.88769531 Z " fill="#FFFFFF" transform="translate(33.98193359375,10.1123046875)"/>
<path d="M0 0 C4.13639336 1.59092052 7.23213248 4.60474918 10 8 C10 8.66 10 9.32 10 10 C5.86360664 8.40907948 2.76786752 5.39525082 0 2 C0 1.34 0 0.68 0 0 Z " fill="#FFFFFF" transform="translate(36,17)"/>
</svg>
